<svg width="512" height="512" viewBox="0 0 512 512" fill="none" xmlns="http://www.w3.org/2000/svg">
<g clip-path="url(#clip0_1_14)">
<path d="M70.8 236.08C87.8667 167.813 130.533 116.613 198.8 82.48C250 65.4133 301.2 73.9467 352.4 108.08C403.6 142.213 429.2 193.413 429.2 261.68C429.2 329.947 403.6 381.147 352.4 415.28C301.2 449.413 250 457.947 198.8 440.88C147.6 423.813 104.933 389.68 70.8 338.48C53.7333 304.347 53.7333 270.213 70.8 236.08Z" stroke="white" stroke-width="8"/>
<path d="M352.4 108.08C369.467 56.88 395.067 48.3467 429.2 82.48C437.733 99.5467 437.733 116.613 429.2 133.68" stroke="white" stroke-width="8"/>
<path d="M352.4 210.48C369.467 201.947 386.533 201.947 403.6 210.48C386.533 219.013 369.467 219.013 352.4 210.48Z" stroke="white" stroke-width="8"/>
<path d="M429 244C443.667 258.333 443.667 272.667 429 287" stroke="white" stroke-width="8"/>
<path d="M429.2 287.28C412.133 295.813 395.067 298.373 378 294.96" stroke="white" stroke-width="8"/>
<path d="M427 262.8L465.4 250" stroke="white" stroke-width="8"/>
<path d="M427 267.92H465.4" stroke="white" stroke-width="8"/>
<path d="M427 273.04L465.4 285.84" stroke="white" stroke-width="8"/>
<path d="M122 415.28C130.533 418.693 139.067 418.693 147.6 415.28C156.133 418.693 164.667 418.693 173.2 415.28C181.733 418.693 190.267 418.693 198.8 415.28" stroke="white" stroke-width="8"/>
<path d="M224.4 94.48C232.933 91.0666 241.467 91.0666 250 94.48C258.533 91.0666 267.067 91.0666 275.6 94.48C284.133 91.0666 292.667 91.0666 301.2 94.48" stroke="white" stroke-width="8"/>
</g>
<defs>
<clipPath id="clip0_1_14">
<rect width="512" height="512" fill="white"/>
</clipPath>
</defs>
</svg>
